# xmcd CD database file
#
# Track frame offsets:
#	150
#	20307
#	35886
#	56866
#	74216
#	94588
#	108090
#	132787
#	148300
#	165664
#	181233
#	201496
#	222299
#
# Disc length: 3180 seconds
#
# Revision: 0
# Processed by: cddbd v1.5.1PL0 Copyright (c) Steve Scherf et al.
# Submitted via: CDex 1.51
#
DISCID=ca0c6a0d
DTITLE=Dani Thompson - Like A Woman
DYEAR=2003
DGENRE=Jazz
TTITLE0=Dani Thompson - You Go To My Head
TTITLE1=Dani Thompson - Piney Brown Blues
TTITLE2=Dani Thompson - Sideshow
TTITLE3=Dani Thompson - Body And Soul
TTITLE4=Dani Thompson - (I'm) In Love Again
TTITLE5=Dani Thompson - Don'cha Go 'Way Mad
TTITLE6=Dani Thompson - Easy Living
TTITLE7=Dani Thompson - All Of You
TTITLE8=Dani Thompson - Ne T'en Vas Pas
TTITLE9=Dani Thompson - Don't You Know?
TTITLE10=Dani Thompson - The Way You Look Tonight
TTITLE11=Dani Thompson - Midnight Sun
TTITLE12=Dani Thompson - Two Sleepy People
EXTD=YEAR: 2003
EXTT0=
EXTT1=
EXTT2=
EXTT3=
EXTT4=
EXTT5=
EXTT6=
EXTT7=
EXTT8=
EXTT9=
EXTT10=
EXTT11=
EXTT12=
PLAYORDER=
